<svg xmlns="http://www.w3.org/2000/svg" width="56" height="56" viewBox="0 0 56 56">
    <g fill="none" fill-rule="evenodd">
        <path fill="#8FBAFC" d="M27.813 11.201a16.8 16.8 0 1 1-16.613 16.8c0-9.206 7.408-16.698 16.613-16.8zm.07-5.6A22.4 22.4 0 1 0 50.4 27.817C50.3 15.453 40.198 5.508 27.833 5.601h.05z"/>
        <circle cx="28" cy="28" r="18.2" fill="#D0E5FF"/>
        <circle cx="28" cy="28" r="2.8" fill="#FF9333"/>
        <path fill="#FF9333" d="M26.6 28a1.4 1.4 0 0 1 1.4-1.4h8.4a1.4 1.4 0 0 1 0 2.8H28a1.4 1.4 0 0 1-1.4-1.4z"/>
        <path fill="#FF9333" d="M28 14a1.4 1.4 0 0 1 1.4 1.4V28a1.4 1.4 0 0 1-2.8 0V15.4A1.4 1.4 0 0 1 28 14z"/>
    </g>
</svg>
